HIERARCHY
ROOT Hips
{
	OFFSET -0.001795 -0.223333 0.028219
	CHANNELS 6 Xposition Yposition Zposition Zrotation Yrotation Xrotation 
	JOINT LeftUpLeg
	{
		OFFSET 0.069520 -0.091406 -0.006815
		CHANNELS 3 Zrotation Yrotation Xrotation
		JOINT LeftLeg
		{
			OFFSET 0.034277 -0.375199 -0.004496
			CHANNELS 3 Zrotation Yrotation Xrotation
			JOINT LeftFoot
			{
				OFFSET -0.013596 -0.397961 -0.043693
				CHANNELS 3 Zrotation Yrotation Xrotation
				JOINT LeftToe
				{
					OFFSET 0.026358 -0.055791 0.119288
					CHANNELS 3 Zrotation Yrotation Xrotation
					End Site
					{
						OFFSET 0.000000 0.000000 0.000000
					}
				}
			}
		}
	}
	JOINT RightUpLeg
	{
		OFFSET -0.067670 -0.090522 -0.004320
		CHANNELS 3 Zrotation Yrotation Xrotation
		JOINT RightLeg
		{
			OFFSET -0.038290 -0.382569 -0.008850
			CHANNELS 3 Zrotation Yrotation Xrotation
			JOINT RightFoot
			{
				OFFSET 0.015774 -0.398415 -0.042312
				CHANNELS 3 Zrotation Yrotation Xrotation
				JOINT RightToe
				{
					OFFSET -0.025372 -0.048144 0.123348
					CHANNELS 3 Zrotation Yrotation Xrotation
					End Site
					{
						OFFSET 0.000000 0.000000 0.000000
					}
				}
			}
		}
	}
	JOINT Spine
	{
		OFFSET -0.002533 0.108963 -0.026696
		CHANNELS 3 Zrotation Yrotation Xrotation
		JOINT Spine1
		{
			OFFSET 0.005487 0.135180 0.001092
			CHANNELS 3 Zrotation Yrotation Xrotation
			JOINT Spine2
			{
				OFFSET 0.001457 0.052922 0.025425
				CHANNELS 3 Zrotation Yrotation Xrotation
				JOINT Neck
				{
					OFFSET -0.002778 0.213870 -0.042857
					CHANNELS 3 Zrotation Yrotation Xrotation
					JOINT Head
					{
						OFFSET 0.005152 0.064970 0.051349
						CHANNELS 3 Zrotation Yrotation Xrotation
						End Site
						{
							OFFSET 0.000000 0.000000 0.000000
						}
					}
				}
				JOINT LeftShoulder
				{
					OFFSET 0.078845 0.121749 -0.034090
					CHANNELS 3 Zrotation Yrotation Xrotation
					JOINT LeftArm
					{
						OFFSET 0.090977 0.030469 -0.008868
						CHANNELS 3 Zrotation Yrotation Xrotation
						JOINT LeftForeArm
						{
							OFFSET 0.259612 -0.012772 -0.027456
							CHANNELS 3 Zrotation Yrotation Xrotation
							JOINT LeftHand
							{
								OFFSET 0.249234 0.008986 -0.001171
								CHANNELS 3 Zrotation Yrotation Xrotation
								End Site
								{
									OFFSET 0.000000 0.000000 0.000000
								}
							}
						}
					}
				}
				JOINT RightShoulder
				{
					OFFSET -0.081759 0.118833 -0.038615
					CHANNELS 3 Zrotation Yrotation Xrotation
					JOINT RightArm
					{
						OFFSET -0.096012 0.032551 -0.009143
						CHANNELS 3 Zrotation Yrotation Xrotation
						JOINT RightForeArm
						{
							OFFSET -0.253742 -0.013329 -0.021401
							CHANNELS 3 Zrotation Yrotation Xrotation
							JOINT RightHand
							{
								OFFSET -0.255298 0.007772 -0.005559
								CHANNELS 3 Zrotation Yrotation Xrotation
								End Site
								{
									OFFSET 0.000000 0.000000 0.000000
								}
							}
						}
					}
				}
			}
		}
	}
}
MOTION
Frames: 15
Frame Time: 0.050000
0.000000 0.291198 0.000000 -2.233762 -2.406383 -24.221758 30.507995 16.732930 -77.670390 -14.580494 37.597711 140.511467 9.862219 26.669483 -32.526088 0.000000 0.000000 0.000000 -30.125864 -13.931420 -81.201433 31.843671 -53.502873 118.661211 -14.197352 -52.804646 -23.712039 0.000000 0.000000 0.000000 -0.006640 -3.218094 84.415457 -10.209503 2.802852 -33.503785 -1.179720 5.945776 25.606607 18.277662 -13.960350 -14.304791 0.000000 0.000000 0.000000 11.012909 -34.326839 6.651641 -14.142493 -28.645380 0.044834 104.198701 -63.641235 -76.710637 0.000000 0.000000 0.000000 -1.432975 16.804655 4.562568 6.905349 34.436351 -0.336198 -92.004695 59.279021 -57.929941 0.000000 0.000000 0.000000 
-0.001026 0.282472 0.004179 -2.979873 -2.259051 -23.324219 31.345961 17.875703 -80.183742 -11.975774 35.408957 146.178315 8.927972 20.054818 -33.655125 0.000000 0.000000 0.000000 -31.664917 -16.145782 -84.124222 30.120861 -55.235522 122.881692 -13.757808 -47.134621 -20.778981 0.000000 0.000000 0.000000 -1.052706 -2.620771 86.370615 -9.742068 2.423044 -36.743575 1.274019 9.694168 26.284690 19.491066 -14.200469 -14.946341 0.000000 0.000000 0.000000 12.138888 -34.776466 6.766376 -14.005616 -32.941364 0.042539 105.539015 -63.431344 -79.622010 0.000000 0.000000 0.000000 -1.618390 14.121132 3.683954 5.253290 35.061930 -0.493779 -93.781187 64.554548 -63.430126 0.000000 0.000000 0.000000 
-0.001172 0.275026 0.008174 -2.691877 0.962490 -24.796254 29.654323 14.327578 -80.536163 -11.801335 35.570829 146.376807 9.176616 20.965658 -35.155520 0.000000 0.000000 0.000000 -31.081501 -18.193166 -84.760611 25.252039 -53.781876 130.477096 -14.279835 -47.725105 -18.354394 0.000000 0.000000 0.000000 -0.173103 -5.153321 86.604720 -5.482872 1.974170 -35.147696 -4.182438 11.732923 25.421085 23.290430 -18.930637 -12.262666 0.000000 0.000000 0.000000 7.389407 -36.064408 8.274931 -9.525913 -30.599360 -0.566396 103.441239 -65.396307 -81.460326 0.000000 0.000000 0.000000 0.867762 17.255806 5.138277 0.721424 32.838557 -1.093649 -90.144872 65.145877 -60.844769 0.000000 0.000000 0.000000 
-0.000129 0.268904 0.011911 -1.641157 0.125092 -25.324580 30.366799 15.370808 -79.329910 -13.695598 43.394862 145.898654 10.581374 30.474743 -33.235102 0.000000 0.000000 0.000000 -30.542011 -17.510672 -87.033807 21.847437 -51.997796 135.284846 -13.857727 -45.787058 -18.207472 0.000000 0.000000 0.000000 0.942144 -5.640948 87.683291 -8.168738 2.453789 -35.217840 -4.802702 9.489297 24.965127 22.999751 -19.277634 -11.536995 0.000000 0.000000 0.000000 9.530271 -35.009215 7.394412 -10.160704 -30.426973 -0.439104 103.023712 -65.384516 -79.864700 0.000000 0.000000 0.000000 -1.599041 16.071672 4.169605 0.178880 34.199620 -1.226541 -91.309669 66.581229 -64.125182 0.000000 0.000000 0.000000 
0.001927 0.266663 0.015327 -1.435898 -0.638692 -25.470253 30.134368 15.394362 -77.753852 -14.639579 45.617990 144.917794 11.106635 35.332149 -34.386849 0.000000 0.000000 0.000000 -30.092386 -16.633252 -87.769272 20.718966 -50.247033 136.176493 -13.877139 -45.198716 -17.794111 0.000000 0.000000 0.000000 0.117526 -4.394709 87.796595 -7.068940 2.183083 -35.289086 -4.105967 10.555142 25.341838 23.072733 -19.615027 -10.737070 0.000000 0.000000 0.000000 10.372846 -33.139265 6.969174 -10.061332 -30.586131 -0.543837 108.040100 -65.056259 -85.424540 0.000000 0.000000 0.000000 -3.646462 17.914618 4.119047 -0.344490 32.115886 -1.103673 -95.788714 66.428874 -67.616823 0.000000 0.000000 0.000000 
0.005031 0.267349 0.018430 -1.384399 -0.945076 -24.966548 30.190499 15.606053 -77.530447 -17.107868 51.419661 142.767684 12.777516 42.965531 -32.441955 0.000000 0.000000 0.000000 -30.782227 -17.086138 -88.032220 19.665841 -49.141670 137.532221 -12.955784 -42.281414 -18.414601 0.000000 0.000000 0.000000 1.619517 -5.610422 88.113366 -8.813182 2.474181 -36.064665 -4.220233 9.637898 25.092126 23.396532 -19.350778 -12.217954 0.000000 0.000000 0.000000 11.320386 -33.318894 6.720267 -11.305956 -31.109597 -0.395342 110.674526 -66.198621 -88.704904 0.000000 0.000000 0.000000 -4.051643 17.011420 3.848466 -0.415892 32.537732 -1.179266 -103.174507 67.249995 -75.856904 0.000000 0.000000 0.000000 
0.008454 0.271547 0.021275 -1.201941 -0.767586 -25.238535 29.743359 15.063930 -77.080940 -18.815520 53.831933 140.804791 14.378594 46.511967 -29.044929 0.000000 0.000000 0.000000 -31.304197 -17.497160 -87.451076 18.942692 -47.119852 137.863055 -12.718288 -40.393392 -17.010603 0.000000 0.000000 0.000000 2.680239 -6.688379 88.646315 -9.502180 2.554288 -37.522347 -4.464150 8.456063 26.202321 23.376314 -19.777860 -12.103608 0.000000 0.000000 0.000000 11.021515 -32.768781 6.498749 -10.837546 -30.985879 -0.424181 113.200038 -65.253212 -89.749607 0.000000 0.000000 0.000000 -4.165168 17.156416 3.886755 -1.257645 32.083846 -1.334033 -107.981818 67.366266 -81.528144 0.000000 0.000000 0.000000 
0.011000 0.274615 0.023478 -1.249867 -0.761194 -24.667731 29.786085 15.280083 -77.866800 -19.024048 55.287442 141.131079 15.133684 46.520250 -26.528425 0.000000 0.000000 0.000000 -32.189433 -18.303385 -87.472952 17.211715 -44.218038 139.820755 -10.923849 -34.141731 -17.833502 0.000000 0.000000 0.000000 3.569092 -7.493214 88.583582 -9.605331 2.634058 -36.940683 -4.925599 7.936212 24.873550 23.393421 -20.044100 -11.456193 0.000000 0.000000 0.000000 8.581802 -32.418565 7.068335 -8.520665 -31.004370 -0.605117 116.537139 -64.686920 -92.940310 0.000000 0.000000 0.000000 -2.872678 16.563222 4.088452 -2.046923 31.157916 -1.424747 -118.622302 67.990727 -93.929527 0.000000 0.000000 0.000000 
0.012049 0.277236 0.024680 -0.971737 -1.185228 -24.167198 29.598350 15.682883 -78.678367 -17.471411 53.763787 143.124662 14.575198 43.141086 -25.180713 0.000000 0.000000 0.000000 -32.653984 -18.324904 -87.479572 17.010006 -42.968178 139.387126 -10.401280 -31.981194 -18.125460 0.000000 0.000000 0.000000 3.998245 -7.580887 88.576146 -9.376273 2.512648 -38.025386 -5.063002 7.563488 25.249696 23.550789 -20.108807 -11.939840 0.000000 0.000000 0.000000 7.337824 -31.841080 7.245531 -6.628425 -31.698850 -0.860223 116.473751 -63.163543 -91.218687 0.000000 0.000000 0.000000 -1.912627 16.006881 4.181486 -2.687612 31.063723 -1.553231 -124.871904 69.487551 -102.988626 0.000000 0.000000 0.000000 
0.011425 0.280268 0.024920 -1.096729 -1.279242 -23.499937 29.467454 15.881372 -79.721244 -16.430168 52.037783 144.180948 14.149474 40.782518 -24.413503 0.000000 0.000000 0.000000 -32.492741 -18.198689 -87.721492 17.326418 -42.673477 138.349728 -10.453820 -31.758426 -17.476473 0.000000 0.000000 0.000000 4.011733 -7.536989 88.367605 -8.929908 2.408703 -37.999867 -4.728909 7.380603 24.679521 23.688388 -19.173127 -13.879076 0.000000 0.000000 0.000000 5.934199 -31.355891 7.537198 -5.009795 -32.173872 -1.064908 115.665911 -62.438426 -89.687382 0.000000 0.000000 0.000000 -1.336953 14.923294 4.043049 -2.435755 31.033656 -1.567745 -131.362036 70.205121 -111.367792 0.000000 0.000000 0.000000 
0.009586 0.285466 0.024471 -1.334869 -1.763251 -22.659704 29.530078 16.362313 -80.172842 -14.515510 47.744932 145.974821 12.522863 35.153072 -25.369912 0.000000 0.000000 0.000000 -32.738039 -17.995072 -87.386878 17.868746 -42.390907 136.738706 -9.949376 -29.620909 -17.712637 0.000000 0.000000 0.000000 3.642728 -6.980683 88.489546 -7.551416 2.094986 -39.005926 -4.527178 7.887372 25.176902 23.631643 -19.018259 -14.064561 0.000000 0.000000 0.000000 4.589989 -31.401278 7.890400 -3.514281 -32.135818 -1.308986 113.135738 -62.347874 -87.184128 0.000000 0.000000 0.000000 -0.081159 14.592540 4.226162 -1.984692 30.631868 -1.525315 -137.611291 71.644044 -120.068561 0.000000 0.000000 0.000000 
0.007205 0.294685 0.023722 -1.769490 -1.699647 -21.225880 29.445937 16.315872 -80.596967 -13.970033 45.119899 145.750336 11.852080 32.237516 -25.950733 0.000000 0.000000 0.000000 -33.008017 -18.127247 -86.550819 19.206930 -42.171270 133.329422 -9.675210 -28.218506 -17.270987 0.000000 0.000000 0.000000 3.386933 -6.715189 87.293570 -6.845934 1.977602 -38.595759 -3.639332 7.700343 24.958986 23.231271 -17.949821 -15.150250 0.000000 0.000000 0.000000 4.352034 -30.602008 7.849292 -3.458671 -32.795189 -1.381376 111.714765 -62.991035 -86.183247 0.000000 0.000000 0.000000 0.770030 13.795575 4.222001 -0.925075 30.300738 -1.465715 -143.720370 72.985527 -128.572952 0.000000 0.000000 0.000000 
0.005332 0.306483 0.023076 -2.262804 -1.967774 -19.723730 29.636663 16.570669 -80.404750 -14.435774 43.981196 143.998002 11.855026 31.756370 -25.661823 0.000000 0.000000 0.000000 -33.638627 -18.403373 -86.033859 20.981899 -43.414942 130.137713 -9.517382 -26.834310 -15.629024 0.000000 0.000000 0.000000 3.254593 -6.368833 85.890631 -5.750901 1.778460 -38.514779 -3.311727 8.089906 24.312454 22.551056 -16.963946 -15.384043 0.000000 0.000000 0.000000 1.994930 -30.636679 8.447412 -2.171301 -31.660775 -1.510159 111.528611 -66.208028 -89.621722 0.000000 0.000000 0.000000 3.210408 13.206628 4.581835 -0.193408 28.090366 -1.352284 -152.675811 74.882829 -140.947107 0.000000 0.000000 0.000000 
0.004252 0.321151 0.023101 -2.779141 -2.390752 -17.899101 29.615692 16.551290 -79.344848 -13.518716 39.062732 143.192580 10.341607 25.611330 -28.115864 0.000000 0.000000 0.000000 -34.163053 -18.163769 -84.572291 22.870583 -43.723160 126.014411 -8.993991 -24.586588 -15.786572 0.000000 0.000000 0.000000 3.383357 -6.081709 83.843561 -5.332355 1.694730 -38.103195 -2.600490 7.818951 23.907119 22.558165 -16.084395 -17.097370 0.000000 0.000000 0.000000 1.692321 -30.295335 8.511070 -2.436643 -31.081500 -1.469611 112.675966 -68.033122 -92.433289 0.000000 0.000000 0.000000 5.562589 13.159690 5.076996 -0.088549 26.231120 -1.351433 -157.249446 76.643103 -147.928777 0.000000 0.000000 0.000000 
0.003691 0.337253 0.024140 -3.332365 -2.780751 -16.022558 29.086103 16.068773 -78.177482 -13.098280 36.562008 142.415105 9.920968 23.386377 -30.029895 0.000000 0.000000 0.000000 -34.322888 -17.654003 -83.214921 25.421557 -44.669109 121.263899 -9.141790 -24.749415 -15.253273 0.000000 0.000000 0.000000 4.004112 -6.247947 81.895654 -5.745582 1.724009 -38.245975 -1.766142 6.995240 23.363287 22.160651 -15.559202 -17.489006 0.000000 0.000000 0.000000 -0.517076 -29.910593 8.958723 -1.578554 -29.319709 -1.462393 119.330833 -71.475915 -102.769299 0.000000 0.000000 0.000000 8.355464 12.776304 5.441938 -0.191955 23.629972 -1.308498 -167.196415 76.909488 -160.961827 0.000000 0.000000 0.000000 
